<?xml version="1.0" encoding="UTF-8"?>
<svg width="1200pt" height="1200pt" version="1.1" viewBox="0 0 1200 1200" xmlns="http://www.w3.org/2000/svg">
 <path d="m1029.1 64.582h-858.3c-77.602 0-140.85 63.262-140.85 140.83v571.12c0 77.57 63.25 140.84 140.85 140.84h60.301c16.922 0 30.523 13.586 30.523 30.523v89.359c0 38.605 21.695 72.422 56.262 89.004 13.602 6.2266 27.953 9.1562 42.285 9.1562 22.07 0 43.77-7.3633 62.156-22.414l222.85-183.48c1.0938-1.1367 2.1992-2.2148 3.668-3.3516 5.8945-5.5078 13.242-8.7969 21.695-8.7969h358.55c77.605 0.003906 140.86-63.262 140.86-140.83v-571.12c0-77.57-63.25-140.83-140.85-140.83z" fill="#fff"/>
</svg>
