<?xml version="1.0" encoding="UTF-8"?>
<svg width="1200pt" height="1200pt" version="1.1" viewBox="0 0 1200 1200" xmlns="http://www.w3.org/2000/svg">
 <path d="m335.5 403.52c-8.9141 0-17.094 2.6758-24.09 7.0859l268.28 226.95c12.281 10.402 28.832 10.398 41.094 0l267.8-226.95c-6.9961-4.4062-15.176-7.0859-24.09-7.0859h-529zm-42.746 30.465c-1.6133 4.6719-2.5938 9.6445-2.5938 14.879v302.29c0 9.1055 2.7383 17.473 7.3203 24.562l192-175-196.72-166.73zm614.49 0-196.25 166.49 191.53 175.23c4.5859-7.0898 7.3203-15.457 7.3203-24.562v-302.29c0-5.2344-0.98047-10.207-2.5977-14.879zm-219.39 186.33-47.703 40.383c-23.07 19.574-56.984 19.547-80.059 0l-47.469-40.148-190.58 173.81c4.2656 1.3203 8.75 2.125 13.461 2.125h529c4.7109 0 9.1953-0.80469 13.461-2.125l-190.11-174.05z" fill="#fff"/>
</svg>
