<?xml version="1.0" encoding="UTF-8"?>
<svg width="1200pt" height="1200pt" version="1.1" viewBox="0 0 1200 1200" xmlns="http://www.w3.org/2000/svg">
 <path d="m1197.1 946.2c-1.9453 8.4492-5.1836 16.543-9.6016 24-33.988 55.57-75.5 106.17-123.36 150.36-14.293 11.457-29.328 21.961-45 31.441l-36 2.2812c-17.398-2.2812-35.16-4.3203-52.199-7.4414-77.004-15.793-150.88-44.172-218.64-84-116.28-64.801-220.32-146.16-320.04-233.88-91.348-78.48-174.9-165.61-249.48-260.16-51.242-66.723-96.359-136.8-123.72-217.2-6.7188-19.801-11.281-40.32-16.801-60l-2.2773-36.602c15.238-45.48 45.961-80.52 78.238-114.24 24-24.719 48.719-48 73.922-71.16 21.105-19.508 50.363-27.562 78.48-21.602 16.066 2.4023 30.547 11.02 40.32 24 51.602 68.398 102.6 137.28 156 204 10.996 13.145 18.07 29.121 20.402 46.102 2.3359 16.98-0.16016 34.273-7.2031 49.898-6.4805 17.16-15 33.602-22.801 50.281-9.1211 19.32-18.238 38.762-28.199 57.719-4.3789 5.8203-3.4297 14.051 2.1602 18.719 36 36.84 70.32 75.359 108 110.76 69.324 67.504 144.32 128.93 224.16 183.6 3.418 3.0039 7.8086 4.6641 12.359 4.6641 4.5508 0 8.9414-1.6602 12.359-4.6641 29.16-19.801 58.801-39 88.801-57.719 20.91-14.766 46.621-21.105 72-17.758 7.75 1.2539 15.223 3.8516 22.078 7.6797 79.359 45.199 158.56 90.641 237.6 136.32 25.441 14.398 37.32 50.398 28.441 84.598z" fill="#fff"/>
</svg>
